<svg width="9" height="9" viewBox="0 0 9 9" fill="none" xmlns="http://www.w3.org/2000/svg">
<path d="M6.525 4.05C7.18141 4.05 7.81094 4.31076 8.27509 4.77491C8.73924 5.23906 9 5.86859 9 6.525C9 7.18141 8.73924 7.81094 8.27509 8.27509C7.81094 8.73924 7.18141 9 6.525 9C5.86859 9 5.23906 8.73924 4.77491 8.27509C4.31076 7.81094 4.05 7.18141 4.05 6.525C4.05 5.86859 4.31076 5.23906 4.77491 4.77491C5.23906 4.31076 5.86859 4.05 6.525 4.05ZM5.4108 5.4108C5.36862 5.45299 5.34492 5.51021 5.34492 5.56987C5.34492 5.62954 5.36862 5.68676 5.4108 5.72895L6.20685 6.52545L5.4117 7.32015C5.39078 7.34104 5.37418 7.36585 5.36285 7.39315C5.35151 7.42046 5.34567 7.44973 5.34565 7.47929C5.34563 7.50885 5.35143 7.53813 5.36273 7.56545C5.37402 7.59278 5.39058 7.61761 5.41148 7.63853C5.43236 7.65944 5.45717 7.67604 5.48448 7.68738C5.51178 7.69871 5.54105 7.70455 5.57062 7.70458C5.60018 7.7046 5.62946 7.69879 5.65678 7.6875C5.6841 7.67621 5.70893 7.65964 5.72985 7.63875L6.525 6.8436L7.3215 7.63965C7.34226 7.66114 7.36708 7.67828 7.39453 7.69007C7.42199 7.70186 7.45151 7.70807 7.48138 7.70833C7.51126 7.70859 7.54089 7.7029 7.56854 7.69158C7.59619 7.68027 7.62131 7.66356 7.64244 7.64244C7.66356 7.62131 7.68027 7.59619 7.69158 7.56854C7.7029 7.54089 7.70859 7.51126 7.70833 7.48138C7.70807 7.45151 7.70186 7.42199 7.69007 7.39453C7.67828 7.36708 7.66114 7.34226 7.63965 7.3215L6.8436 6.525L7.64055 5.7285C7.68154 5.68606 7.70421 5.62923 7.7037 5.57023C7.70319 5.51124 7.67953 5.45481 7.63781 5.41309C7.59609 5.37137 7.53966 5.34771 7.48067 5.3472C7.42167 5.34669 7.36483 5.36936 7.3224 5.41035L6.52545 6.20685L5.72895 5.41035C5.68676 5.36817 5.62954 5.34447 5.56987 5.34447C5.51021 5.34447 5.45299 5.36817 5.4108 5.41035V5.4108ZM6.6375 0C7.02538 0 7.39737 0.154084 7.67164 0.428356C7.94592 0.702628 8.1 1.07462 8.1 1.4625L8.10045 4.06035C7.8901 3.92531 7.66323 3.81793 7.42545 3.74085L7.425 2.475H0.675V6.6375C0.675 7.0722 1.0278 7.425 1.4625 7.425H3.7413C3.8187 7.6653 3.9267 7.8921 4.06035 8.10045L1.4625 8.1C1.07462 8.1 0.702628 7.94592 0.428356 7.67164C0.154084 7.39737 0 7.02538 0 6.6375V1.4625C0 1.07462 0.154084 0.702628 0.428356 0.428356C0.702628 0.154084 1.07462 0 1.4625 0H6.6375ZM6.6375 0.675H1.4625C1.25364 0.675 1.05334 0.757969 0.905653 0.905653C0.757969 1.05334 0.675 1.25364 0.675 1.4625V1.8H7.425V1.4625C7.425 1.25364 7.34203 1.05334 7.19435 0.905653C7.04666 0.757969 6.84636 0.675 6.6375 0.675Z" fill="black" fill-opacity="0.8"/>
</svg>
