<svg width="20" height="20" viewBox="0 0 20 20" fill="none" xmlns="http://www.w3.org/2000/svg">
<path d="M7.49852 8.50229H9.99802C10.2632 8.50229 10.5175 8.39695 10.705 8.20945C10.8925 8.02195 10.9978 7.76765 10.9978 7.50248C10.9978 7.23732 10.8925 6.98302 10.705 6.79552C10.5175 6.60802 10.2632 6.50268 9.99802 6.50268H8.99822V6.00278C8.99822 5.73762 8.89288 5.48331 8.70538 5.29582C8.51789 5.10832 8.26358 5.00298 7.99842 5.00298C7.73325 5.00298 7.47895 5.10832 7.29145 5.29582C7.10395 5.48331 6.99862 5.73762 6.99862 6.00278V6.55267C6.39116 6.67602 5.85121 7.02068 5.48357 7.51974C5.11594 8.01881 4.94686 8.63667 5.00916 9.25338C5.07145 9.8701 5.36068 10.4417 5.82068 10.8571C6.28069 11.2726 6.87866 11.5023 7.49852 11.5017H8.49832C8.6309 11.5017 8.75805 11.5544 8.8518 11.6481C8.94555 11.7419 8.99822 11.869 8.99822 12.0016C8.99822 12.1342 8.94555 12.2613 8.8518 12.3551C8.75805 12.4488 8.6309 12.5015 8.49832 12.5015H5.99882C5.73365 12.5015 5.47935 12.6068 5.29185 12.7943C5.10435 12.9818 4.99901 13.2361 4.99901 13.5013C4.99901 13.7665 5.10435 14.0208 5.29185 14.2083C5.47935 14.3958 5.73365 14.5011 5.99882 14.5011H6.99862V15.001C6.99862 15.2662 7.10395 15.5205 7.29145 15.708C7.47895 15.8955 7.73325 16.0008 7.99842 16.0008C8.26358 16.0008 8.51789 15.8955 8.70538 15.708C8.89288 15.5205 8.99822 15.2662 8.99822 15.001V14.4511C9.60568 14.3278 10.1456 13.9831 10.5133 13.484C10.8809 12.985 11.05 12.3671 10.9877 11.7504C10.9254 11.1337 10.6362 10.5621 10.1762 10.1466C9.71614 9.73118 9.11817 9.50146 8.49832 9.50209H7.49852C7.36594 9.50209 7.23878 9.44942 7.14503 9.35567C7.05128 9.26192 6.99862 9.13477 6.99862 9.00219C6.99862 8.8696 7.05128 8.74245 7.14503 8.6487C7.23878 8.55495 7.36594 8.50229 7.49852 8.50229ZM18.9962 10.002H15.9968V1.00378C15.9975 0.8276 15.9517 0.654368 15.8639 0.501621C15.7761 0.348873 15.6495 0.222035 15.4969 0.133948C15.3449 0.0461972 15.1725 0 14.997 0C14.8215 0 14.6491 0.0461972 14.4971 0.133948L11.4977 1.85361L8.49832 0.133948C8.34633 0.0461972 8.17392 0 7.99842 0C7.82292 0 7.65051 0.0461972 7.49852 0.133948L4.49911 1.85361L1.49971 0.133948C1.34772 0.0461972 1.17531 0 0.999809 0C0.824307 0 0.651897 0.0461972 0.499909 0.133948C0.347335 0.222035 0.220746 0.348873 0.13296 0.501621C0.0451738 0.654368 -0.000691547 0.8276 7.88132e-06 1.00378V17.0006C7.88132e-06 17.7961 0.316016 18.559 0.878513 19.1215C1.44101 19.684 2.20392 20 2.99941 20H16.9966C17.7921 20 18.555 19.684 19.1175 19.1215C19.68 18.559 19.996 17.7961 19.996 17.0006V11.0018C19.996 10.7366 19.8907 10.4823 19.7032 10.2948C19.5157 10.1073 19.2614 10.002 18.9962 10.002ZM2.99941 18.0004C2.73425 18.0004 2.47994 17.8951 2.29245 17.7076C2.10495 17.5201 1.99961 17.2658 1.99961 17.0006V2.73343L3.99921 3.8732C4.15352 3.9538 4.32503 3.99589 4.49911 3.99589C4.6732 3.99589 4.84471 3.9538 4.99901 3.8732L7.99842 2.15355L10.9978 3.8732C11.1521 3.9538 11.3236 3.99589 11.4977 3.99589C11.6718 3.99589 11.8433 3.9538 11.9976 3.8732L13.9972 2.73343V17.0006C13.9999 17.3417 14.0608 17.6798 14.1772 18.0004H2.99941ZM17.9964 17.0006C17.9964 17.2658 17.8911 17.5201 17.7036 17.7076C17.5161 17.8951 17.2618 18.0004 16.9966 18.0004C16.7315 18.0004 16.4772 17.8951 16.2897 17.7076C16.1022 17.5201 15.9968 17.2658 15.9968 17.0006V12.0016H17.9964V17.0006Z" fill="#C22A23"/>
</svg>
