<svg width="11" height="12" viewBox="0 0 11 12" fill="none" xmlns="http://www.w3.org/2000/svg">
<path d="M5.48148 4.13344e-09C5.97341 -3.22055e-05 6.44671 0.18818 6.80429 0.526028C7.16186 0.863875 7.37659 1.32574 7.40444 1.81689L7.40741 1.92593H10.5185C10.6311 1.92596 10.7395 1.96874 10.8218 2.04561C10.9041 2.12249 10.9541 2.22773 10.9618 2.34008C10.9695 2.45242 10.9342 2.56349 10.8632 2.65084C10.7921 2.7382 10.6905 2.79532 10.579 2.81067L10.5185 2.81481H10.0468L9.2883 10.5304C9.25029 10.915 9.0768 11.2736 8.7988 11.5422C8.52081 11.8108 8.1564 11.9718 7.77067 11.9964L7.66637 12H3.29659C2.9099 12 2.53582 11.8625 2.24119 11.612C1.94656 11.3616 1.75059 11.0145 1.6883 10.6329L1.67467 10.5298L0.915556 2.81481H0.444444C0.337044 2.81481 0.233279 2.77592 0.152337 2.70532C0.071396 2.63473 0.0187545 2.53722 0.00414813 2.43081L0 2.37037C4.52912e-06 2.26297 0.0388993 2.1592 0.109492 2.07826C0.180084 1.99732 0.277598 1.94468 0.384 1.93007L0.444444 1.92593H3.55556C3.55556 1.41514 3.75847 0.925272 4.11965 0.564091C4.48083 0.202909 4.97069 4.13344e-09 5.48148 4.13344e-09ZM9.15378 2.81481H1.80859L2.55941 10.4427C2.57603 10.6129 2.65104 10.7721 2.77169 10.8933C2.89234 11.0145 3.05121 11.0902 3.22133 11.1076L3.29659 11.1111H7.66637C8.02193 11.1111 8.32356 10.8593 8.3923 10.5173L8.40415 10.4427L9.15318 2.81481H9.15378ZM6.51852 4.44444C6.62592 4.44445 6.72968 4.48334 6.81063 4.55394C6.89157 4.62453 6.94421 4.72204 6.95882 4.82844L6.96296 4.88889V9.03704C6.96293 9.14964 6.92015 9.25804 6.84328 9.34032C6.7664 9.4226 6.66116 9.47264 6.54881 9.48031C6.43647 9.48799 6.3254 9.45273 6.23805 9.38167C6.15069 9.31061 6.09357 9.20904 6.07822 9.09748L6.07407 9.03704V4.88889C6.07407 4.77102 6.1209 4.65797 6.20425 4.57462C6.2876 4.49127 6.40064 4.44444 6.51852 4.44444ZM4.44444 4.44444C4.55184 4.44445 4.65561 4.48334 4.73655 4.55394C4.81749 4.62453 4.87013 4.72204 4.88474 4.82844L4.88889 4.88889V9.03704C4.88885 9.14964 4.84608 9.25804 4.7692 9.34032C4.69233 9.4226 4.58708 9.47264 4.47474 9.48031C4.36239 9.48799 4.25132 9.45273 4.16397 9.38167C4.07662 9.31061 4.0195 9.20904 4.00415 9.09748L4 9.03704V4.88889C4 4.77102 4.04683 4.65797 4.13018 4.57462C4.21352 4.49127 4.32657 4.44444 4.44444 4.44444ZM5.48148 0.888889C5.22122 0.888899 4.97048 0.986768 4.77903 1.16307C4.58758 1.33937 4.46942 1.58121 4.448 1.84059L4.44444 1.92593H6.51852C6.51852 1.65089 6.40926 1.38711 6.21478 1.19263C6.0203 0.998148 5.75652 0.888889 5.48148 0.888889Z" fill="black"/>
</svg>
