<svg width="15" height="16" viewBox="0 0 15 16" fill="none" xmlns="http://www.w3.org/2000/svg">
<path d="M10.5892 2.98294L12.2174 4.72637L10.5892 2.98294ZM11.6362 1.44704L7.23364 6.16344C7.00616 6.4068 6.85102 6.71684 6.78777 7.05451L6.3811 9.23524L8.41673 8.79876C8.73192 8.73123 9.02096 8.5657 9.24851 8.32193L13.6511 3.60553C13.7834 3.4638 13.8883 3.29555 13.9599 3.11037C14.0315 2.92519 14.0684 2.72672 14.0684 2.52629C14.0684 2.32585 14.0315 2.12738 13.9599 1.9422C13.8883 1.75702 13.7834 1.58877 13.6511 1.44704C13.5188 1.30531 13.3617 1.19288 13.1889 1.11618C13.016 1.03948 12.8308 1 12.6437 1C12.4566 1 12.2713 1.03948 12.0984 1.11618C11.9256 1.19288 11.7685 1.30531 11.6362 1.44704V1.44704Z" stroke="#C22A23" stroke-width="1.6" stroke-linecap="round" stroke-linejoin="round"/>
<path d="M12.5311 10.8825V13.3531C12.5311 13.7899 12.3692 14.2089 12.0808 14.5177C11.7925 14.8266 11.4014 15.0002 10.9937 15.0002H2.53749C2.12972 15.0002 1.73865 14.8266 1.45032 14.5177C1.16198 14.2089 1 13.7899 1 13.3531V4.29417C1 3.85734 1.16198 3.4384 1.45032 3.12951C1.73865 2.82063 2.12972 2.64709 2.53749 2.64709H4.84371" stroke="#C22A23" stroke-width="1.6" stroke-linecap="round" stroke-linejoin="round"/>
</svg>
