<svg width="18" height="18" viewBox="0 0 18 18" fill="none" xmlns="http://www.w3.org/2000/svg">
<path d="M10.125 14.625H14.625V15.75H10.125V14.625Z" fill="#C22A23"/>
<path d="M10.125 12.375H16.875V13.5H10.125V12.375Z" fill="#C22A23"/>
<path d="M10.125 10.125H16.875V11.25H10.125V10.125Z" fill="#C22A23"/>
<path d="M11.5588 6.30956L8.99997 1.125L6.44116 6.30956L0.719971 7.14094L4.85997 11.1769L3.88235 16.875L7.87497 14.7763V13.5051L5.37691 14.8185L5.96866 11.367L6.06878 10.7837L5.64522 10.3714L3.1376 7.92619L6.60316 7.42275L7.18816 7.33781L7.45028 6.80737L8.99997 3.66694L10.5497 6.80737L10.8118 7.33781L11.3968 7.42275L15.5897 8.03306L15.75 6.91875L11.5588 6.30956Z" fill="#C22A23"/>
</svg>
