<svg width="20" height="20" viewBox="0 0 20 20" fill="none" xmlns="http://www.w3.org/2000/svg">
<path d="M13.1083 4.16663H6.89167L2.5 8.55829V14.775L6.89167 19.1666H13.1083L17.5 14.775V8.55829L13.1083 4.16663ZM15.8333 14.0833L12.4167 17.5H7.58333L4.16667 14.0833V9.24996L7.58333 5.83329H12.4167L15.8333 9.24996V14.0833Z" fill="#C22A23"/>
<path d="M10 15.8333C10.4603 15.8333 10.8334 15.4602 10.8334 15C10.8334 14.5397 10.4603 14.1666 10 14.1666C9.53978 14.1666 9.16669 14.5397 9.16669 15C9.16669 15.4602 9.53978 15.8333 10 15.8333Z" fill="#C22A23"/>
<path d="M9.16669 7.5H10.8334V13.3333H9.16669V7.5Z" fill="#C22A23"/>
</svg>
